  0
SECTION
  2
HEADER
  9
$ACADVER
  1
AC1009
  9
$EXTMIN
 10
0.0
 20
0.0
 30
0.0
  9
$EXTMAX
 10
1000.0
 20
1000.0
 30
0.0
  9
$FILLMODE
 70
 0
  9
$SPLFRAME
 70
 1
  0
ENDSEC
  0
SECTION
  2
TABLES
  0
TABLE
  2
LAYER
 70
1
  0
LAYER
  2
0
 70
     0
 62
     7
  6
CONTINUOUS
  0
ENDTAB
  0
ENDSEC
  0
SECTION
  2
ENTITIES
  0
LINE
  8
0
 62
     0
 10
189.596
 20
79.6325
 30
0.0
 11
189.909
 21
79.6202
 31
0.0
  0
LINE
  8
0
 62
     0
 10
189.909
 20
79.6202
 30
0.0
 11
190.222
 21
79.5831
 31
0.0
  0
LINE
  8
0
 62
     0
 10
190.222
 20
79.5831
 30
0.0
 11
190.529
 21
79.5225
 31
0.0
  0
LINE
  8
0
 62
     0
 10
190.529
 20
79.5225
 30
0.0
 11
190.832
 21
79.4371
 31
0.0
  0
LINE
  8
0
 62
     0
 10
190.832
 20
79.4371
 30
0.0
 11
191.127
 21
79.3281
 31
0.0
  0
LINE
  8
0
 62
     0
 10
191.127
 20
79.3281
 30
0.0
 11
191.411
 21
79.1972
 31
0.0
  0
LINE
  8
0
 62
     0
 10
191.411
 20
79.1972
 30
0.0
 11
191.685
 21
79.043
 31
0.0
  0
LINE
  8
0
 62
     0
 10
191.685
 20
79.043
 30
0.0
 11
191.947
 21
78.8691
 31
0.0
  0
LINE
  8
0
 62
     0
 10
191.947
 20
78.8691
 30
0.0
 11
192.194
 21
78.6751
 31
0.0
  0
LINE
  8
0
 62
     0
 10
192.194
 20
78.6751
 30
0.0
 11
192.425
 21
78.4613
 31
0.0
  0
LINE
  8
0
 62
     0
 10
192.425
 20
78.4613
 30
0.0
 11
192.637
 21
78.2299
 31
0.0
  0
LINE
  8
0
 62
     0
 10
192.637
 20
78.2299
 30
0.0
 11
192.833
 21
77.9847
 31
0.0
  0
LINE
  8
0
 62
     0
 10
192.833
 20
77.9847
 30
0.0
 11
193.006
 21
77.7226
 31
0.0
  0
LINE
  8
0
 62
     0
 10
193.006
 20
77.7226
 30
0.0
 11
193.161
 21
77.4485
 31
0.0
  0
LINE
  8
0
 62
     0
 10
193.161
 20
77.4485
 30
0.0
 11
193.292
 21
77.1631
 31
0.0
  0
LINE
  8
0
 62
     0
 10
193.292
 20
77.1631
 30
0.0
 11
193.401
 21
76.8696
 31
0.0
  0
LINE
  8
0
 62
     0
 10
193.401
 20
76.8696
 30
0.0
 11
193.485
 21
76.5665
 31
0.0
  0
LINE
  8
0
 62
     0
 10
193.485
 20
76.5665
 30
0.0
 11
193.547
 21
76.2579
 31
0.0
  0
LINE
  8
0
 62
     0
 10
193.547
 20
76.2579
 30
0.0
 11
193.584
 21
75.9464
 31
0.0
  0
LINE
  8
0
 62
     0
 10
193.584
 20
75.9464
 30
0.0
 11
193.595
 21
75.6324
 31
0.0
  0
LINE
  8
0
 62
     0
 10
193.595
 20
75.6324
 30
0.0
 11
193.596
 21
4.43177
 31
0.0
  0
LINE
  8
0
 62
     0
 10
193.596
 20
4.43177
 30
0.0
 11
193.584
 21
4.11896
 31
0.0
  0
LINE
  8
0
 62
     0
 10
193.584
 20
4.11896
 30
0.0
 11
193.547
 21
3.80615
 31
0.0
  0
LINE
  8
0
 62
     0
 10
193.547
 20
3.80615
 30
0.0
 11
193.485
 21
3.49884
 31
0.0
  0
LINE
  8
0
 62
     0
 10
193.485
 20
3.49884
 30
0.0
 11
193.401
 21
3.19567
 31
0.0
  0
LINE
  8
0
 62
     0
 10
193.401
 20
3.19567
 30
0.0
 11
193.292
 21
2.90077
 31
0.0
  0
LINE
  8
0
 62
     0
 10
193.292
 20
2.90077
 30
0.0
 11
193.161
 21
2.6169
 31
0.0
  0
LINE
  8
0
 62
     0
 10
193.161
 20
2.6169
 30
0.0
 11
193.006
 21
2.34267
 31
0.0
  0
LINE
  8
0
 62
     0
 10
193.006
 20
2.34267
 30
0.0
 11
192.833
 21
2.08084
 31
0.0
  0
LINE
  8
0
 62
     0
 10
192.833
 20
2.08084
 30
0.0
 11
192.637
 21
1.83417
 31
0.0
  0
LINE
  8
0
 62
     0
 10
192.637
 20
1.83417
 30
0.0
 11
192.425
 21
1.60266
 31
0.0
  0
LINE
  8
0
 62
     0
 10
192.425
 20
1.60266
 30
0.0
 11
192.194
 21
1.39044
 31
0.0
  0
LINE
  8
0
 62
     0
 10
192.194
 20
1.39044
 30
0.0
 11
191.947
 21
1.19476
 31
0.0
  0
LINE
  8
0
 62
     0
 10
191.947
 20
1.19476
 30
0.0
 11
191.685
 21
1.02113
 31
0.0
  0
LINE
  8
0
 62
     0
 10
191.685
 20
1.02113
 30
0.0
 11
191.411
 21
0.866786
 31
0.0
  0
LINE
  8
0
 62
     0
 10
191.411
 20
0.866786
 30
0.0
 11
191.127
 21
0.735873
 31
0.0
  0
LINE
  8
0
 62
     0
 10
191.127
 20
0.735873
 30
0.0
 11
190.832
 21
0.627006
 31
0.0
  0
LINE
  8
0
 62
     0
 10
190.832
 20
0.627006
 30
0.0
 11
190.529
 21
0.542946
 31
0.0
  0
LINE
  8
0
 62
     0
 10
190.529
 20
0.542946
 30
0.0
 11
190.222
 21
0.480935
 31
0.0
  0
LINE
  8
0
 62
     0
 10
190.222
 20
0.480935
 30
0.0
 11
189.909
 21
0.443727
 31
0.0
  0
LINE
  8
0
 62
     0
 10
189.909
 20
0.443727
 30
0.0
 11
189.596
 21
0.431327
 31
0.0
  0
LINE
  8
0
 62
     0
 10
189.596
 20
0.431327
 30
0.0
 11
4.09554
 21
0.431327
 31
0.0
  0
LINE
  8
0
 62
     0
 10
4.09554
 20
0.431327
 30
0.0
 11
3.78135
 21
0.443727
 31
0.0
  0
LINE
  8
0
 62
     0
 10
3.78135
 20
0.443727
 30
0.0
 11
3.4699
 21
0.480935
 31
0.0
  0
LINE
  8
0
 62
     0
 10
3.4699
 20
0.480935
 30
0.0
 11
3.16122
 21
0.542946
 31
0.0
  0
LINE
  8
0
 62
     0
 10
3.16122
 20
0.542946
 30
0.0
 11
2.85805
 21
0.627006
 31
0.0
  0
LINE
  8
0
 62
     0
 10
2.85805
 20
0.627006
 30
0.0
 11
2.56453
 21
0.735873
 31
0.0
  0
LINE
  8
0
 62
     0
 10
2.56453
 20
0.735873
 30
0.0
 11
2.27928
 21
0.866786
 31
0.0
  0
LINE
  8
0
 62
     0
 10
2.27928
 20
0.866786
 30
0.0
 11
2.00504
 21
1.02113
 31
0.0
  0
LINE
  8
0
 62
     0
 10
2.00504
 20
1.02113
 30
0.0
 11
1.74322
 21
1.19476
 31
0.0
  0
LINE
  8
0
 62
     0
 10
1.74322
 20
1.19476
 30
0.0
 11
1.49793
 21
1.39044
 31
0.0
  0
LINE
  8
0
 62
     0
 10
1.49793
 20
1.39044
 30
0.0
 11
1.26642
 21
1.60266
 31
0.0
  0
LINE
  8
0
 62
     0
 10
1.26642
 20
1.60266
 30
0.0
 11
1.05282
 21
1.83417
 31
0.0
  0
LINE
  8
0
 62
     0
 10
1.05282
 20
1.83417
 30
0.0
 11
0.858516
 21
2.08084
 31
0.0
  0
LINE
  8
0
 62
     0
 10
0.858516
 20
2.08084
 30
0.0
 11
0.684886
 21
2.34267
 31
0.0
  0
LINE
  8
0
 62
     0
 10
0.684886
 20
2.34267
 30
0.0
 11
0.530546
 21
2.6169
 31
0.0
  0
LINE
  8
0
 62
     0
 10
0.530546
 20
2.6169
 30
0.0
 11
0.39963
 21
2.90077
 31
0.0
  0
LINE
  8
0
 62
     0
 10
0.39963
 20
2.90077
 30
0.0
 11
0.290766
 21
3.19567
 31
0.0
  0
LINE
  8
0
 62
     0
 10
0.290766
 20
3.19567
 30
0.0
 11
0.205328
 21
3.49884
 31
0.0
  0
LINE
  8
0
 62
     0
 10
0.205328
 20
3.49884
 30
0.0
 11
0.144694
 21
3.80615
 31
0.0
  0
LINE
  8
0
 62
     0
 10
0.144694
 20
3.80615
 30
0.0
 11
0.107487
 21
4.11896
 31
0.0
  0
LINE
  8
0
 62
     0
 10
0.107487
 20
4.11896
 30
0.0
 11
0.0950846
 21
4.43177
 31
0.0
  0
LINE
  8
0
 62
     0
 10
0.0950846
 20
4.43177
 30
0.0
 11
0.0950846
 21
75.6324
 31
0.0
  0
LINE
  8
0
 62
     0
 10
0.0950846
 20
75.6324
 30
0.0
 11
0.107487
 21
75.9464
 31
0.0
  0
LINE
  8
0
 62
     0
 10
0.107487
 20
75.9464
 30
0.0
 11
0.144694
 21
76.2579
 31
0.0
  0
LINE
  8
0
 62
     0
 10
0.144694
 20
76.2579
 30
0.0
 11
0.205328
 21
76.5665
 31
0.0
  0
LINE
  8
0
 62
     0
 10
0.205328
 20
76.5665
 30
0.0
 11
0.290766
 21
76.8696
 31
0.0
  0
LINE
  8
0
 62
     0
 10
0.290766
 20
76.8696
 30
0.0
 11
0.39963
 21
77.1631
 31
0.0
  0
LINE
  8
0
 62
     0
 10
0.39963
 20
77.1631
 30
0.0
 11
0.530546
 21
77.4485
 31
0.0
  0
LINE
  8
0
 62
     0
 10
0.530546
 20
77.4485
 30
0.0
 11
0.684886
 21
77.7226
 31
0.0
  0
LINE
  8
0
 62
     0
 10
0.684886
 20
77.7226
 30
0.0
 11
0.858516
 21
77.9847
 31
0.0
  0
LINE
  8
0
 62
     0
 10
0.858516
 20
77.9847
 30
0.0
 11
1.05282
 21
78.2299
 31
0.0
  0
LINE
  8
0
 62
     0
 10
1.05282
 20
78.2299
 30
0.0
 11
1.26642
 21
78.4613
 31
0.0
  0
LINE
  8
0
 62
     0
 10
1.26642
 20
78.4613
 30
0.0
 11
1.49793
 21
78.6751
 31
0.0
  0
LINE
  8
0
 62
     0
 10
1.49793
 20
78.6751
 30
0.0
 11
1.74322
 21
78.8691
 31
0.0
  0
LINE
  8
0
 62
     0
 10
1.74322
 20
78.8691
 30
0.0
 11
2.00504
 21
79.043
 31
0.0
  0
LINE
  8
0
 62
     0
 10
2.00504
 20
79.043
 30
0.0
 11
2.27928
 21
79.1972
 31
0.0
  0
LINE
  8
0
 62
     0
 10
2.27928
 20
79.1972
 30
0.0
 11
2.56453
 21
79.3281
 31
0.0
  0
LINE
  8
0
 62
     0
 10
2.56453
 20
79.3281
 30
0.0
 11
2.85805
 21
79.4371
 31
0.0
  0
LINE
  8
0
 62
     0
 10
2.85805
 20
79.4371
 30
0.0
 11
3.16122
 21
79.5225
 31
0.0
  0
LINE
  8
0
 62
     0
 10
3.16122
 20
79.5225
 30
0.0
 11
3.4699
 21
79.5831
 31
0.0
  0
LINE
  8
0
 62
     0
 10
3.4699
 20
79.5831
 30
0.0
 11
3.78135
 21
79.6202
 31
0.0
  0
LINE
  8
0
 62
     0
 10
3.78135
 20
79.6202
 30
0.0
 11
4.09554
 21
79.6325
 31
0.0
  0
LINE
  8
0
 62
     0
 10
4.09554
 20
79.6325
 30
0.0
 11
189.596
 21
79.6325
 31
0.0
  0
LINE
  8
0
 62
     0
 10
96.9892
 20
18.4574
 30
0.0
 11
96.9892
 21
13.757
 31
0.0
  0
LINE
  8
0
 62
     0
 10
96.9892
 20
13.757
 30
0.0
 11
57.3634
 21
13.757
 31
0.0
  0
LINE
  8
0
 62
     0
 10
57.3634
 20
13.757
 30
0.0
 11
57.3634
 21
16.9871
 31
0.0
  0
LINE
  8
0
 62
     0
 10
57.3634
 20
16.9871
 30
0.0
 11
50.6141
 21
16.9871
 31
0.0
  0
LINE
  8
0
 62
     0
 10
50.6141
 20
16.9871
 30
0.0
 11
50.6141
 21
13.757
 31
0.0
  0
LINE
  8
0
 62
     0
 10
50.6141
 20
13.757
 30
0.0
 11
49.7886
 21
13.757
 31
0.0
  0
LINE
  8
0
 62
     0
 10
49.7886
 20
13.757
 30
0.0
 11
49.7886
 21
10.9568
 31
0.0
  0
LINE
  8
0
 62
     0
 10
49.7886
 20
10.9568
 30
0.0
 11
50.6141
 21
10.9568
 31
0.0
  0
LINE
  8
0
 62
     0
 10
50.6141
 20
10.9568
 30
0.0
 11
50.6141
 21
4.68672
 31
0.0
  0
LINE
  8
0
 62
     0
 10
50.6141
 20
4.68672
 30
0.0
 11
52.3378
 21
4.68672
 31
0.0
  0
LINE
  8
0
 62
     0
 10
52.3378
 20
4.68672
 30
0.0
 11
52.3378
 21
3.48782
 31
0.0
  0
LINE
  8
0
 62
     0
 10
52.3378
 20
3.48782
 30
0.0
 11
55.6383
 21
3.48782
 31
0.0
  0
LINE
  8
0
 62
     0
 10
55.6383
 20
3.48782
 30
0.0
 11
55.6383
 21
4.68672
 31
0.0
  0
LINE
  8
0
 62
     0
 10
55.6383
 20
4.68672
 30
0.0
 11
57.3634
 21
4.68672
 31
0.0
  0
LINE
  8
0
 62
     0
 10
57.3634
 20
4.68672
 30
0.0
 11
57.3634
 21
9.15705
 31
0.0
  0
LINE
  8
0
 62
     0
 10
57.3634
 20
9.15705
 30
0.0
 11
96.9892
 21
9.15705
 31
0.0
  0
LINE
  8
0
 62
     0
 10
96.9892
 20
9.15705
 30
0.0
 11
96.9892
 21
4.45795
 31
0.0
  0
LINE
  8
0
 62
     0
 10
96.9892
 20
4.45795
 30
0.0
 11
110.988
 21
4.45795
 31
0.0
  0
LINE
  8
0
 62
     0
 10
110.988
 20
4.45795
 30
0.0
 11
110.988
 21
9.15705
 31
0.0
  0
LINE
  8
0
 62
     0
 10
110.988
 20
9.15705
 30
0.0
 11
150.614
 21
9.15705
 31
0.0
  0
LINE
  8
0
 62
     0
 10
150.614
 20
9.15705
 30
0.0
 11
150.614
 21
4.68672
 31
0.0
  0
LINE
  8
0
 62
     0
 10
150.614
 20
4.68672
 30
0.0
 11
152.338
 21
4.68672
 31
0.0
  0
LINE
  8
0
 62
     0
 10
152.338
 20
4.68672
 30
0.0
 11
152.338
 21
3.48782
 31
0.0
  0
LINE
  8
0
 62
     0
 10
152.338
 20
3.48782
 30
0.0
 11
155.638
 21
3.48782
 31
0.0
  0
LINE
  8
0
 62
     0
 10
155.638
 20
3.48782
 30
0.0
 11
155.638
 21
4.68672
 31
0.0
  0
LINE
  8
0
 62
     0
 10
155.638
 20
4.68672
 30
0.0
 11
157.364
 21
4.68672
 31
0.0
  0
LINE
  8
0
 62
     0
 10
157.364
 20
4.68672
 30
0.0
 11
157.364
 21
10.9568
 31
0.0
  0
LINE
  8
0
 62
     0
 10
157.364
 20
10.9568
 30
0.0
 11
158.189
 21
10.9568
 31
0.0
  0
LINE
  8
0
 62
     0
 10
158.189
 20
10.9568
 30
0.0
 11
158.189
 21
13.757
 31
0.0
  0
LINE
  8
0
 62
     0
 10
158.189
 20
13.757
 30
0.0
 11
157.364
 21
13.757
 31
0.0
  0
LINE
  8
0
 62
     0
 10
157.364
 20
13.757
 30
0.0
 11
157.364
 21
16.9871
 31
0.0
  0
LINE
  8
0
 62
     0
 10
157.364
 20
16.9871
 30
0.0
 11
150.614
 21
16.9871
 31
0.0
  0
LINE
  8
0
 62
     0
 10
150.614
 20
16.9871
 30
0.0
 11
150.614
 21
13.757
 31
0.0
  0
LINE
  8
0
 62
     0
 10
150.614
 20
13.757
 30
0.0
 11
110.988
 21
13.757
 31
0.0
  0
LINE
  8
0
 62
     0
 10
110.988
 20
13.757
 30
0.0
 11
110.988
 21
18.4574
 31
0.0
  0
LINE
  8
0
 62
     0
 10
110.988
 20
18.4574
 30
0.0
 11
96.9892
 21
18.4574
 31
0.0
  0
LINE
  8
0
 62
     0
 10
16.0266
 20
18.4574
 30
0.0
 11
16.0266
 21
13.757
 31
0.0
  0
LINE
  8
0
 62
     0
 10
16.0266
 20
13.757
 30
0.0
 11
14.5011
 21
13.757
 31
0.0
  0
LINE
  8
0
 62
     0
 10
14.5011
 20
13.757
 30
0.0
 11
14.5011
 21
16.9871
 31
0.0
  0
LINE
  8
0
 62
     0
 10
14.5011
 20
16.9871
 30
0.0
 11
7.75148
 21
16.9871
 31
0.0
  0
LINE
  8
0
 62
     0
 10
7.75148
 20
16.9871
 30
0.0
 11
7.75148
 21
13.757
 31
0.0
  0
LINE
  8
0
 62
     0
 10
7.75148
 20
13.757
 30
0.0
 11
6.92602
 21
13.757
 31
0.0
  0
LINE
  8
0
 62
     0
 10
6.92602
 20
13.757
 30
0.0
 11
6.92602
 21
10.9568
 31
0.0
  0
LINE
  8
0
 62
     0
 10
6.92602
 20
10.9568
 30
0.0
 11
7.75148
 21
10.9568
 31
0.0
  0
LINE
  8
0
 62
     0
 10
7.75148
 20
10.9568
 30
0.0
 11
7.75148
 21
4.68672
 31
0.0
  0
LINE
  8
0
 62
     0
 10
7.75148
 20
4.68672
 30
0.0
 11
9.47678
 21
4.68672
 31
0.0
  0
LINE
  8
0
 62
     0
 10
9.47678
 20
4.68672
 30
0.0
 11
9.47678
 21
3.48782
 31
0.0
  0
LINE
  8
0
 62
     0
 10
9.47678
 20
3.48782
 30
0.0
 11
12.7772
 21
3.48782
 31
0.0
  0
LINE
  8
0
 62
     0
 10
12.7772
 20
3.48782
 30
0.0
 11
12.7772
 21
4.68672
 31
0.0
  0
LINE
  8
0
 62
     0
 10
12.7772
 20
4.68672
 30
0.0
 11
14.5011
 21
4.68672
 31
0.0
  0
LINE
  8
0
 62
     0
 10
14.5011
 20
4.68672
 30
0.0
 11
14.5011
 21
9.15705
 31
0.0
  0
LINE
  8
0
 62
     0
 10
14.5011
 20
9.15705
 30
0.0
 11
16.0266
 21
9.15705
 31
0.0
  0
LINE
  8
0
 62
     0
 10
16.0266
 20
9.15705
 30
0.0
 11
16.0266
 21
4.45795
 31
0.0
  0
LINE
  8
0
 62
     0
 10
16.0266
 20
4.45795
 30
0.0
 11
30.0261
 21
4.45795
 31
0.0
  0
LINE
  8
0
 62
     0
 10
30.0261
 20
4.45795
 30
0.0
 11
30.0261
 21
9.15705
 31
0.0
  0
LINE
  8
0
 62
     0
 10
30.0261
 20
9.15705
 30
0.0
 11
31.5516
 21
9.15705
 31
0.0
  0
LINE
  8
0
 62
     0
 10
31.5516
 20
9.15705
 30
0.0
 11
31.5516
 21
4.68672
 31
0.0
  0
LINE
  8
0
 62
     0
 10
31.5516
 20
4.68672
 30
0.0
 11
33.2769
 21
4.68672
 31
0.0
  0
LINE
  8
0
 62
     0
 10
33.2769
 20
4.68672
 30
0.0
 11
33.2769
 21
3.48782
 31
0.0
  0
LINE
  8
0
 62
     0
 10
33.2769
 20
3.48782
 30
0.0
 11
36.576
 21
3.48782
 31
0.0
  0
LINE
  8
0
 62
     0
 10
36.576
 20
3.48782
 30
0.0
 11
36.576
 21
4.68672
 31
0.0
  0
LINE
  8
0
 62
     0
 10
36.576
 20
4.68672
 30
0.0
 11
38.3011
 21
4.68672
 31
0.0
  0
LINE
  8
0
 62
     0
 10
38.3011
 20
4.68672
 30
0.0
 11
38.3011
 21
10.9568
 31
0.0
  0
LINE
  8
0
 62
     0
 10
38.3011
 20
10.9568
 30
0.0
 11
39.1266
 21
10.9568
 31
0.0
  0
LINE
  8
0
 62
     0
 10
39.1266
 20
10.9568
 30
0.0
 11
39.1266
 21
13.757
 31
0.0
  0
LINE
  8
0
 62
     0
 10
39.1266
 20
13.757
 30
0.0
 11
38.3011
 21
13.757
 31
0.0
  0
LINE
  8
0
 62
     0
 10
38.3011
 20
13.757
 30
0.0
 11
38.3011
 21
16.9871
 31
0.0
  0
LINE
  8
0
 62
     0
 10
38.3011
 20
16.9871
 30
0.0
 11
31.5516
 21
16.9871
 31
0.0
  0
LINE
  8
0
 62
     0
 10
31.5516
 20
16.9871
 30
0.0
 11
31.5516
 21
13.757
 31
0.0
  0
LINE
  8
0
 62
     0
 10
31.5516
 20
13.757
 30
0.0
 11
30.0261
 21
13.757
 31
0.0
  0
LINE
  8
0
 62
     0
 10
30.0261
 20
13.757
 30
0.0
 11
30.0261
 21
18.4574
 31
0.0
  0
LINE
  8
0
 62
     0
 10
30.0261
 20
18.4574
 30
0.0
 11
16.0266
 21
18.4574
 31
0.0
  0
LINE
  8
0
 62
     0
 10
170.808
 20
18.4574
 30
0.0
 11
184.807
 21
18.4574
 31
0.0
  0
LINE
  8
0
 62
     0
 10
184.807
 20
18.4574
 30
0.0
 11
184.807
 21
4.45795
 31
0.0
  0
LINE
  8
0
 62
     0
 10
184.807
 20
4.45795
 30
0.0
 11
170.808
 21
4.45795
 31
0.0
  0
LINE
  8
0
 62
     0
 10
170.808
 20
4.45795
 30
0.0
 11
170.808
 21
18.4574
 31
0.0
  0
LINE
  8
0
 62
     0
 10
163.664
 20
37.5073
 30
0.0
 11
163.664
 21
32.807
 31
0.0
  0
LINE
  8
0
 62
     0
 10
163.664
 20
32.807
 30
0.0
 11
162.138
 21
32.807
 31
0.0
  0
LINE
  8
0
 62
     0
 10
162.138
 20
32.807
 30
0.0
 11
162.138
 21
36.037
 31
0.0
  0
LINE
  8
0
 62
     0
 10
162.138
 20
36.037
 30
0.0
 11
155.389
 21
36.037
 31
0.0
  0
LINE
  8
0
 62
     0
 10
155.389
 20
36.037
 30
0.0
 11
155.389
 21
32.807
 31
0.0
  0
LINE
  8
0
 62
     0
 10
155.389
 20
32.807
 30
0.0
 11
154.564
 21
32.807
 31
0.0
  0
LINE
  8
0
 62
     0
 10
154.564
 20
32.807
 30
0.0
 11
154.564
 21
30.0068
 31
0.0
  0
LINE
  8
0
 62
     0
 10
154.564
 20
30.0068
 30
0.0
 11
155.389
 21
30.0068
 31
0.0
  0
LINE
  8
0
 62
     0
 10
155.389
 20
30.0068
 30
0.0
 11
155.389
 21
23.7381
 31
0.0
  0
LINE
  8
0
 62
     0
 10
155.389
 20
23.7381
 30
0.0
 11
157.113
 21
23.7381
 31
0.0
  0
LINE
  8
0
 62
     0
 10
157.113
 20
23.7381
 30
0.0
 11
157.113
 21
22.5378
 31
0.0
  0
LINE
  8
0
 62
     0
 10
157.113
 20
22.5378
 30
0.0
 11
160.413
 21
22.5378
 31
0.0
  0
LINE
  8
0
 62
     0
 10
160.413
 20
22.5378
 30
0.0
 11
160.413
 21
23.7381
 31
0.0
  0
LINE
  8
0
 62
     0
 10
160.413
 20
23.7381
 30
0.0
 11
162.138
 21
23.7381
 31
0.0
  0
LINE
  8
0
 62
     0
 10
162.138
 20
23.7381
 30
0.0
 11
162.138
 21
28.2071
 31
0.0
  0
LINE
  8
0
 62
     0
 10
162.138
 20
28.2071
 30
0.0
 11
163.664
 21
28.2071
 31
0.0
  0
LINE
  8
0
 62
     0
 10
163.664
 20
28.2071
 30
0.0
 11
163.664
 21
23.5079
 31
0.0
  0
LINE
  8
0
 62
     0
 10
163.664
 20
23.5079
 30
0.0
 11
177.663
 21
23.5079
 31
0.0
  0
LINE
  8
0
 62
     0
 10
177.663
 20
23.5079
 30
0.0
 11
177.663
 21
28.2071
 31
0.0
  0
LINE
  8
0
 62
     0
 10
177.663
 20
28.2071
 30
0.0
 11
179.189
 21
28.2071
 31
0.0
  0
LINE
  8
0
 62
     0
 10
179.189
 20
28.2071
 30
0.0
 11
179.189
 21
23.7381
 31
0.0
  0
LINE
  8
0
 62
     0
 10
179.189
 20
23.7381
 30
0.0
 11
180.913
 21
23.7381
 31
0.0
  0
LINE
  8
0
 62
     0
 10
180.913
 20
23.7381
 30
0.0
 11
180.913
 21
22.5378
 31
0.0
  0
LINE
  8
0
 62
     0
 10
180.913
 20
22.5378
 30
0.0
 11
184.213
 21
22.5378
 31
0.0
  0
LINE
  8
0
 62
     0
 10
184.213
 20
22.5378
 30
0.0
 11
184.213
 21
23.7381
 31
0.0
  0
LINE
  8
0
 62
     0
 10
184.213
 20
23.7381
 30
0.0
 11
185.939
 21
23.7381
 31
0.0
  0
LINE
  8
0
 62
     0
 10
185.939
 20
23.7381
 30
0.0
 11
185.939
 21
30.0068
 31
0.0
  0
LINE
  8
0
 62
     0
 10
185.939
 20
30.0068
 30
0.0
 11
186.764
 21
30.0068
 31
0.0
  0
LINE
  8
0
 62
     0
 10
186.764
 20
30.0068
 30
0.0
 11
186.764
 21
32.807
 31
0.0
  0
LINE
  8
0
 62
     0
 10
186.764
 20
32.807
 30
0.0
 11
185.939
 21
32.807
 31
0.0
  0
LINE
  8
0
 62
     0
 10
185.939
 20
32.807
 30
0.0
 11
185.939
 21
36.037
 31
0.0
  0
LINE
  8
0
 62
     0
 10
185.939
 20
36.037
 30
0.0
 11
179.189
 21
36.037
 31
0.0
  0
LINE
  8
0
 62
     0
 10
179.189
 20
36.037
 30
0.0
 11
179.189
 21
32.807
 31
0.0
  0
LINE
  8
0
 62
     0
 10
179.189
 20
32.807
 30
0.0
 11
177.663
 21
32.807
 31
0.0
  0
LINE
  8
0
 62
     0
 10
177.663
 20
32.807
 30
0.0
 11
177.663
 21
37.5073
 31
0.0
  0
LINE
  8
0
 62
     0
 10
177.663
 20
37.5073
 30
0.0
 11
163.664
 21
37.5073
 31
0.0
  0
LINE
  8
0
 62
     0
 10
132.708
 20
37.5073
 30
0.0
 11
146.707
 21
37.5073
 31
0.0
  0
LINE
  8
0
 62
     0
 10
146.707
 20
37.5073
 30
0.0
 11
146.707
 21
23.5079
 31
0.0
  0
LINE
  8
0
 62
     0
 10
146.707
 20
23.5079
 30
0.0
 11
132.708
 21
23.5079
 31
0.0
  0
LINE
  8
0
 62
     0
 10
132.708
 20
23.5079
 30
0.0
 11
132.708
 21
37.5073
 31
0.0
  0
LINE
  8
0
 62
     0
 10
113.658
 20
37.5073
 30
0.0
 11
127.657
 21
37.5073
 31
0.0
  0
LINE
  8
0
 62
     0
 10
127.657
 20
37.5073
 30
0.0
 11
127.657
 21
23.5079
 31
0.0
  0
LINE
  8
0
 62
     0
 10
127.657
 20
23.5079
 30
0.0
 11
113.658
 21
23.5079
 31
0.0
  0
LINE
  8
0
 62
     0
 10
113.658
 20
23.5079
 30
0.0
 11
113.658
 21
37.5073
 31
0.0
  0
LINE
  8
0
 62
     0
 10
94.6079
 20
37.5073
 30
0.0
 11
108.607
 21
37.5073
 31
0.0
  0
LINE
  8
0
 62
     0
 10
108.607
 20
37.5073
 30
0.0
 11
108.607
 21
23.5079
 31
0.0
  0
LINE
  8
0
 62
     0
 10
108.607
 20
23.5079
 30
0.0
 11
94.6079
 21
23.5079
 31
0.0
  0
LINE
  8
0
 62
     0
 10
94.6079
 20
23.5079
 30
0.0
 11
94.6079
 21
37.5073
 31
0.0
  0
LINE
  8
0
 62
     0
 10
75.5579
 20
37.5073
 30
0.0
 11
89.5572
 21
37.5073
 31
0.0
  0
LINE
  8
0
 62
     0
 10
89.5572
 20
37.5073
 30
0.0
 11
89.5572
 21
23.5079
 31
0.0
  0
LINE
  8
0
 62
     0
 10
89.5572
 20
23.5079
 30
0.0
 11
75.5579
 21
23.5079
 31
0.0
  0
LINE
  8
0
 62
     0
 10
75.5579
 20
23.5079
 30
0.0
 11
75.5579
 21
37.5073
 31
0.0
  0
LINE
  8
0
 62
     0
 10
56.5079
 20
37.5073
 30
0.0
 11
70.5072
 21
37.5073
 31
0.0
  0
LINE
  8
0
 62
     0
 10
70.5072
 20
37.5073
 30
0.0
 11
70.5072
 21
23.5079
 31
0.0
  0
LINE
  8
0
 62
     0
 10
70.5072
 20
23.5079
 30
0.0
 11
56.5079
 21
23.5079
 31
0.0
  0
LINE
  8
0
 62
     0
 10
56.5079
 20
23.5079
 30
0.0
 11
56.5079
 21
37.5073
 31
0.0
  0
LINE
  8
0
 62
     0
 10
37.4579
 20
37.5073
 30
0.0
 11
51.4572
 21
37.5073
 31
0.0
  0
LINE
  8
0
 62
     0
 10
51.4572
 20
37.5073
 30
0.0
 11
51.4572
 21
23.5079
 31
0.0
  0
LINE
  8
0
 62
     0
 10
51.4572
 20
23.5079
 30
0.0
 11
37.4579
 21
23.5079
 31
0.0
  0
LINE
  8
0
 62
     0
 10
37.4579
 20
23.5079
 30
0.0
 11
37.4579
 21
37.5073
 31
0.0
  0
LINE
  8
0
 62
     0
 10
18.4078
 20
37.5073
 30
0.0
 11
32.4073
 21
37.5073
 31
0.0
  0
LINE
  8
0
 62
     0
 10
32.4073
 20
37.5073
 30
0.0
 11
32.4073
 21
23.5079
 31
0.0
  0
LINE
  8
0
 62
     0
 10
32.4073
 20
23.5079
 30
0.0
 11
18.4078
 21
23.5079
 31
0.0
  0
LINE
  8
0
 62
     0
 10
18.4078
 20
23.5079
 30
0.0
 11
18.4078
 21
37.5073
 31
0.0
  0
LINE
  8
0
 62
     0
 10
161.283
 20
56.5573
 30
0.0
 11
175.282
 21
56.5573
 31
0.0
  0
LINE
  8
0
 62
     0
 10
175.282
 20
56.5573
 30
0.0
 11
175.282
 21
42.5581
 31
0.0
  0
LINE
  8
0
 62
     0
 10
175.282
 20
42.5581
 30
0.0
 11
161.283
 21
42.5581
 31
0.0
  0
LINE
  8
0
 62
     0
 10
161.283
 20
42.5581
 30
0.0
 11
161.283
 21
56.5573
 31
0.0
  0
LINE
  8
0
 62
     0
 10
142.233
 20
56.5573
 30
0.0
 11
156.232
 21
56.5573
 31
0.0
  0
LINE
  8
0
 62
     0
 10
156.232
 20
56.5573
 30
0.0
 11
156.232
 21
42.5581
 31
0.0
  0
LINE
  8
0
 62
     0
 10
156.232
 20
42.5581
 30
0.0
 11
142.233
 21
42.5581
 31
0.0
  0
LINE
  8
0
 62
     0
 10
142.233
 20
42.5581
 30
0.0
 11
142.233
 21
56.5573
 31
0.0
  0
LINE
  8
0
 62
     0
 10
123.182
 20
56.5573
 30
0.0
 11
137.182
 21
56.5573
 31
0.0
  0
LINE
  8
0
 62
     0
 10
137.182
 20
56.5573
 30
0.0
 11
137.182
 21
42.5581
 31
0.0
  0
LINE
  8
0
 62
     0
 10
137.182
 20
42.5581
 30
0.0
 11
123.182
 21
42.5581
 31
0.0
  0
LINE
  8
0
 62
     0
 10
123.182
 20
42.5581
 30
0.0
 11
123.182
 21
56.5573
 31
0.0
  0
LINE
  8
0
 62
     0
 10
104.133
 20
56.5573
 30
0.0
 11
118.132
 21
56.5573
 31
0.0
  0
LINE
  8
0
 62
     0
 10
118.132
 20
56.5573
 30
0.0
 11
118.132
 21
42.5581
 31
0.0
  0
LINE
  8
0
 62
     0
 10
118.132
 20
42.5581
 30
0.0
 11
104.133
 21
42.5581
 31
0.0
  0
LINE
  8
0
 62
     0
 10
104.133
 20
42.5581
 30
0.0
 11
104.133
 21
56.5573
 31
0.0
  0
LINE
  8
0
 62
     0
 10
85.0829
 20
56.5573
 30
0.0
 11
99.0822
 21
56.5573
 31
0.0
  0
LINE
  8
0
 62
     0
 10
99.0822
 20
56.5573
 30
0.0
 11
99.0822
 21
42.5581
 31
0.0
  0
LINE
  8
0
 62
     0
 10
99.0822
 20
42.5581
 30
0.0
 11
85.0829
 21
42.5581
 31
0.0
  0
LINE
  8
0
 62
     0
 10
85.0829
 20
42.5581
 30
0.0
 11
85.0829
 21
56.5573
 31
0.0
  0
LINE
  8
0
 62
     0
 10
66.0329
 20
56.5573
 30
0.0
 11
80.0322
 21
56.5573
 31
0.0
  0
LINE
  8
0
 62
     0
 10
80.0322
 20
56.5573
 30
0.0
 11
80.0322
 21
42.5581
 31
0.0
  0
LINE
  8
0
 62
     0
 10
80.0322
 20
42.5581
 30
0.0
 11
66.0329
 21
42.5581
 31
0.0
  0
LINE
  8
0
 62
     0
 10
66.0329
 20
42.5581
 30
0.0
 11
66.0329
 21
56.5573
 31
0.0
  0
LINE
  8
0
 62
     0
 10
46.9829
 20
56.5573
 30
0.0
 11
60.9822
 21
56.5573
 31
0.0
  0
LINE
  8
0
 62
     0
 10
60.9822
 20
56.5573
 30
0.0
 11
60.9822
 21
42.5581
 31
0.0
  0
LINE
  8
0
 62
     0
 10
60.9822
 20
42.5581
 30
0.0
 11
46.9829
 21
42.5581
 31
0.0
  0
LINE
  8
0
 62
     0
 10
46.9829
 20
42.5581
 30
0.0
 11
46.9829
 21
56.5573
 31
0.0
  0
LINE
  8
0
 62
     0
 10
27.9328
 20
56.5573
 30
0.0
 11
41.9322
 21
56.5573
 31
0.0
  0
LINE
  8
0
 62
     0
 10
41.9322
 20
56.5573
 30
0.0
 11
41.9322
 21
42.5581
 31
0.0
  0
LINE
  8
0
 62
     0
 10
41.9322
 20
42.5581
 30
0.0
 11
27.9328
 21
42.5581
 31
0.0
  0
LINE
  8
0
 62
     0
 10
27.9328
 20
42.5581
 30
0.0
 11
27.9328
 21
56.5573
 31
0.0
  0
LINE
  8
0
 62
     0
 10
8.88284
 20
56.5573
 30
0.0
 11
22.8823
 21
56.5573
 31
0.0
  0
LINE
  8
0
 62
     0
 10
22.8823
 20
56.5573
 30
0.0
 11
22.8823
 21
42.5581
 31
0.0
  0
LINE
  8
0
 62
     0
 10
22.8823
 20
42.5581
 30
0.0
 11
8.88284
 21
42.5581
 31
0.0
  0
LINE
  8
0
 62
     0
 10
8.88284
 20
42.5581
 30
0.0
 11
8.88284
 21
56.5573
 31
0.0
  0
LINE
  8
0
 62
     0
 10
175.57
 20
75.6087
 30
0.0
 11
189.57
 21
75.6087
 31
0.0
  0
LINE
  8
0
 62
     0
 10
189.57
 20
75.6087
 30
0.0
 11
189.57
 21
61.6081
 31
0.0
  0
LINE
  8
0
 62
     0
 10
189.57
 20
61.6081
 30
0.0
 11
175.57
 21
61.6081
 31
0.0
  0
LINE
  8
0
 62
     0
 10
175.57
 20
61.6081
 30
0.0
 11
175.57
 21
75.6087
 31
0.0
  0
LINE
  8
0
 62
     0
 10
156.52
 20
75.6087
 30
0.0
 11
170.52
 21
75.6087
 31
0.0
  0
LINE
  8
0
 62
     0
 10
170.52
 20
75.6087
 30
0.0
 11
170.52
 21
61.6081
 31
0.0
  0
LINE
  8
0
 62
     0
 10
170.52
 20
61.6081
 30
0.0
 11
156.52
 21
61.6081
 31
0.0
  0
LINE
  8
0
 62
     0
 10
156.52
 20
61.6081
 30
0.0
 11
156.52
 21
75.6087
 31
0.0
  0
LINE
  8
0
 62
     0
 10
137.47
 20
75.6087
 30
0.0
 11
151.47
 21
75.6087
 31
0.0
  0
LINE
  8
0
 62
     0
 10
151.47
 20
75.6087
 30
0.0
 11
151.47
 21
61.6081
 31
0.0
  0
LINE
  8
0
 62
     0
 10
151.47
 20
61.6081
 30
0.0
 11
137.47
 21
61.6081
 31
0.0
  0
LINE
  8
0
 62
     0
 10
137.47
 20
61.6081
 30
0.0
 11
137.47
 21
75.6087
 31
0.0
  0
LINE
  8
0
 62
     0
 10
118.419
 20
75.6087
 30
0.0
 11
132.42
 21
75.6087
 31
0.0
  0
LINE
  8
0
 62
     0
 10
132.42
 20
75.6087
 30
0.0
 11
132.42
 21
61.6081
 31
0.0
  0
LINE
  8
0
 62
     0
 10
132.42
 20
61.6081
 30
0.0
 11
118.419
 21
61.6081
 31
0.0
  0
LINE
  8
0
 62
     0
 10
118.419
 20
61.6081
 30
0.0
 11
118.419
 21
75.6087
 31
0.0
  0
LINE
  8
0
 62
     0
 10
99.369
 20
75.6087
 30
0.0
 11
113.37
 21
75.6087
 31
0.0
  0
LINE
  8
0
 62
     0
 10
113.37
 20
75.6087
 30
0.0
 11
113.37
 21
61.6081
 31
0.0
  0
LINE
  8
0
 62
     0
 10
113.37
 20
61.6081
 30
0.0
 11
99.369
 21
61.6081
 31
0.0
  0
LINE
  8
0
 62
     0
 10
99.369
 20
61.6081
 30
0.0
 11
99.369
 21
75.6087
 31
0.0
  0
LINE
  8
0
 62
     0
 10
80.3204
 20
75.6087
 30
0.0
 11
94.3197
 21
75.6087
 31
0.0
  0
LINE
  8
0
 62
     0
 10
94.3197
 20
75.6087
 30
0.0
 11
94.3197
 21
61.6081
 31
0.0
  0
LINE
  8
0
 62
     0
 10
94.3197
 20
61.6081
 30
0.0
 11
80.3204
 21
61.6081
 31
0.0
  0
LINE
  8
0
 62
     0
 10
80.3204
 20
61.6081
 30
0.0
 11
80.3204
 21
75.6087
 31
0.0
  0
LINE
  8
0
 62
     0
 10
61.2704
 20
75.6087
 30
0.0
 11
75.2697
 21
75.6087
 31
0.0
  0
LINE
  8
0
 62
     0
 10
75.2697
 20
75.6087
 30
0.0
 11
75.2697
 21
61.6081
 31
0.0
  0
LINE
  8
0
 62
     0
 10
75.2697
 20
61.6081
 30
0.0
 11
61.2704
 21
61.6081
 31
0.0
  0
LINE
  8
0
 62
     0
 10
61.2704
 20
61.6081
 30
0.0
 11
61.2704
 21
75.6087
 31
0.0
  0
LINE
  8
0
 62
     0
 10
42.2204
 20
75.6087
 30
0.0
 11
56.2197
 21
75.6087
 31
0.0
  0
LINE
  8
0
 62
     0
 10
56.2197
 20
75.6087
 30
0.0
 11
56.2197
 21
61.6081
 31
0.0
  0
LINE
  8
0
 62
     0
 10
56.2197
 20
61.6081
 30
0.0
 11
42.2204
 21
61.6081
 31
0.0
  0
LINE
  8
0
 62
     0
 10
42.2204
 20
61.6081
 30
0.0
 11
42.2204
 21
75.6087
 31
0.0
  0
LINE
  8
0
 62
     0
 10
23.1703
 20
75.6087
 30
0.0
 11
37.1697
 21
75.6087
 31
0.0
  0
LINE
  8
0
 62
     0
 10
37.1697
 20
75.6087
 30
0.0
 11
37.1697
 21
61.6081
 31
0.0
  0
LINE
  8
0
 62
     0
 10
37.1697
 20
61.6081
 30
0.0
 11
23.1703
 21
61.6081
 31
0.0
  0
LINE
  8
0
 62
     0
 10
23.1703
 20
61.6081
 30
0.0
 11
23.1703
 21
75.6087
 31
0.0
  0
LINE
  8
0
 62
     0
 10
4.11896
 20
75.6087
 30
0.0
 11
18.1198
 21
75.6087
 31
0.0
  0
LINE
  8
0
 62
     0
 10
18.1198
 20
75.6087
 30
0.0
 11
18.1198
 21
61.6081
 31
0.0
  0
LINE
  8
0
 62
     0
 10
18.1198
 20
61.6081
 30
0.0
 11
4.11896
 21
61.6081
 31
0.0
  0
LINE
  8
0
 62
     0
 10
4.11896
 20
61.6081
 30
0.0
 11
4.11896
 21
75.6087
 31
0.0
  0
ENDSEC
  0
EOF
