<?xml version="1.0"?>
<!-- Generated by SVGo -->
<svg width="203.502mm" height="89.202mm"
     viewBox="0.000 0.000 203.502 89.202"
     xmlns="http://www.w3.org/2000/svg" 
     xmlns:xlink="http://www.w3.org/1999/xlink">
<polygon points="194.502,5.001 194.815,5.013 195.127,5.050 195.435,5.111 195.738,5.196 196.032,5.305 196.317,5.436 196.591,5.590 196.853,5.764 197.099,5.959 197.330,6.172 197.543,6.403 197.738,6.649 197.912,6.911 198.066,7.185 198.197,7.470 198.306,7.764 198.391,8.067 198.452,8.375 198.489,8.687 198.501,9.001 198.502,80.202 198.489,80.515 198.452,80.827 198.391,81.135 198.306,81.438 198.197,81.732 198.066,82.017 197.912,82.291 197.738,82.553 197.543,82.799 197.330,83.030 197.099,83.243 196.853,83.438 196.591,83.612 196.317,83.766 196.032,83.897 195.738,84.006 195.435,84.091 195.127,84.152 194.815,84.189 194.502,84.202 9.001,84.202 8.687,84.189 8.375,84.152 8.067,84.091 7.764,84.006 7.470,83.897 7.185,83.766 6.911,83.612 6.649,83.438 6.403,83.243 6.172,83.030 5.959,82.799 5.764,82.553 5.590,82.291 5.436,82.017 5.305,81.732 5.196,81.438 5.111,81.135 5.050,80.827 5.013,80.515 5.000,80.201 5.001,9.001 5.013,8.687 5.050,8.375 5.111,8.067 5.196,7.764 5.305,7.470 5.436,7.185 5.590,6.911 5.764,6.649 5.959,6.403 6.172,6.172 6.403,5.959 6.649,5.764 6.911,5.590 7.185,5.436 7.470,5.305 7.764,5.196 8.067,5.111 8.375,5.050 8.687,5.013 9.001,5.000" style="fill:none;stroke-width:0.050000mm;stroke:black"/>
<polygon points="101.894,66.176 101.894,70.876 62.269,70.876 62.269,67.646 55.519,67.646 55.519,70.876 54.694,70.876 54.694,73.676 55.519,73.676 55.519,79.946 57.244,79.946 57.244,81.146 60.544,81.146 60.544,79.946 62.269,79.946 62.269,75.476 101.894,75.476 101.894,80.176 115.894,80.176 115.894,75.476 155.519,75.476 155.519,79.946 157.244,79.946 157.244,81.146 160.544,81.146 160.544,79.946 162.269,79.946 162.269,73.676 163.094,73.676 163.094,70.876 162.269,70.876 162.269,67.646 155.519,67.646 155.519,70.876 115.894,70.876 115.894,66.176" style="fill:none;stroke-width:0.050000mm;stroke:black"/>
<polygon points="20.932,66.176 20.932,70.876 19.407,70.876 19.407,67.646 12.657,67.646 12.657,70.876 11.832,70.876 11.832,73.676 12.657,73.676 12.657,79.946 14.382,79.946 14.382,81.146 17.682,81.146 17.682,79.946 19.407,79.946 19.407,75.476 20.932,75.476 20.932,80.176 34.932,80.176 34.932,75.476 36.457,75.476 36.457,79.946 38.182,79.946 38.182,81.146 41.482,81.146 41.482,79.946 43.207,79.946 43.207,73.676 44.032,73.676 44.032,70.876 43.207,70.876 43.207,67.646 36.457,67.646 36.457,70.876 34.932,70.876 34.932,66.176" style="fill:none;stroke-width:0.050000mm;stroke:black"/>
<polygon points="175.713,66.176 175.713,80.176 189.713,80.176 189.713,66.176" style="fill:none;stroke-width:0.050000mm;stroke:black"/>
<polygon points="168.569,47.126 168.569,51.826 167.044,51.826 167.044,48.596 160.294,48.596 160.294,51.826 159.469,51.826 159.469,54.626 160.294,54.626 160.294,60.895 162.019,60.895 162.019,62.096 165.319,62.096 165.319,60.895 167.044,60.895 167.044,56.426 168.569,56.426 168.569,61.126 182.569,61.126 182.569,56.426 184.094,56.426 184.094,60.895 185.819,60.895 185.819,62.096 189.119,62.096 189.119,60.895 190.844,60.895 190.844,54.626 191.669,54.626 191.669,51.826 190.844,51.826 190.844,48.596 184.094,48.596 184.094,51.826 182.569,51.826 182.569,47.126" style="fill:none;stroke-width:0.050000mm;stroke:black"/>
<polygon points="137.613,47.126 137.613,61.126 151.613,61.126 151.613,47.126" style="fill:none;stroke-width:0.050000mm;stroke:black"/>
<polygon points="118.563,47.126 118.563,61.126 132.563,61.126 132.563,47.126" style="fill:none;stroke-width:0.050000mm;stroke:black"/>
<polygon points="99.513,47.126 99.513,61.126 113.513,61.126 113.513,47.126" style="fill:none;stroke-width:0.050000mm;stroke:black"/>
<polygon points="80.463,47.126 80.463,61.126 94.463,61.126 94.463,47.126" style="fill:none;stroke-width:0.050000mm;stroke:black"/>
<polygon points="61.413,47.126 61.413,61.126 75.413,61.126 75.413,47.126" style="fill:none;stroke-width:0.050000mm;stroke:black"/>
<polygon points="42.363,47.126 42.363,61.126 56.363,61.126 56.363,47.126" style="fill:none;stroke-width:0.050000mm;stroke:black"/>
<polygon points="23.313,47.126 23.313,61.126 37.313,61.126 37.313,47.126" style="fill:none;stroke-width:0.050000mm;stroke:black"/>
<polygon points="166.188,28.076 166.188,42.076 180.188,42.076 180.188,28.076" style="fill:none;stroke-width:0.050000mm;stroke:black"/>
<polygon points="147.138,28.076 147.138,42.076 161.138,42.076 161.138,28.076" style="fill:none;stroke-width:0.050000mm;stroke:black"/>
<polygon points="128.087,28.076 128.087,42.076 142.088,42.076 142.088,28.076" style="fill:none;stroke-width:0.050000mm;stroke:black"/>
<polygon points="109.038,28.076 109.038,42.076 123.038,42.076 123.038,28.076" style="fill:none;stroke-width:0.050000mm;stroke:black"/>
<polygon points="89.988,28.076 89.988,42.076 103.988,42.076 103.988,28.076" style="fill:none;stroke-width:0.050000mm;stroke:black"/>
<polygon points="70.938,28.076 70.938,42.076 84.938,42.076 84.938,28.076" style="fill:none;stroke-width:0.050000mm;stroke:black"/>
<polygon points="51.888,28.076 51.888,42.076 65.888,42.076 65.888,28.076" style="fill:none;stroke-width:0.050000mm;stroke:black"/>
<polygon points="32.838,28.076 32.838,42.076 46.838,42.076 46.838,28.076" style="fill:none;stroke-width:0.050000mm;stroke:black"/>
<polygon points="13.788,28.076 13.788,42.076 27.788,42.076 27.788,28.076" style="fill:none;stroke-width:0.050000mm;stroke:black"/>
<polygon points="180.476,9.025 180.476,23.026 194.476,23.026 194.476,9.025" style="fill:none;stroke-width:0.050000mm;stroke:black"/>
<polygon points="161.426,9.025 161.426,23.026 175.426,23.026 175.426,9.025" style="fill:none;stroke-width:0.050000mm;stroke:black"/>
<polygon points="142.376,9.025 142.376,23.026 156.376,23.026 156.376,9.025" style="fill:none;stroke-width:0.050000mm;stroke:black"/>
<polygon points="123.325,9.025 123.325,23.026 137.326,23.026 137.326,9.025" style="fill:none;stroke-width:0.050000mm;stroke:black"/>
<polygon points="104.275,9.025 104.275,23.026 118.275,23.026 118.275,9.025" style="fill:none;stroke-width:0.050000mm;stroke:black"/>
<polygon points="85.226,9.025 85.226,23.026 99.226,23.026 99.226,9.025" style="fill:none;stroke-width:0.050000mm;stroke:black"/>
<polygon points="66.176,9.025 66.176,23.026 80.176,23.026 80.176,9.025" style="fill:none;stroke-width:0.050000mm;stroke:black"/>
<polygon points="47.126,9.025 47.126,23.026 61.126,23.026 61.126,9.025" style="fill:none;stroke-width:0.050000mm;stroke:black"/>
<polygon points="28.076,9.025 28.076,23.026 42.076,23.026 42.076,9.025" style="fill:none;stroke-width:0.050000mm;stroke:black"/>
<polygon points="9.025,9.025 9.025,23.026 23.026,23.026 23.026,9.025" style="fill:none;stroke-width:0.050000mm;stroke:black"/>
</svg>
